<svg xmlns="http://www.w3.org/2000/svg" xmlns:xlink="http://www.w3.org/1999/xlink" width="63" height="63" viewBox="0 0 63 63">
  <defs>
    <filter id="Rectangle_6091" x="0" y="0" width="63" height="63" filterUnits="userSpaceOnUse">
      <feOffset dy="3" input="SourceAlpha"/>
      <feGaussianBlur stdDeviation="3" result="blur"/>
      <feFlood flood-opacity="0.161"/>
      <feComposite operator="in" in2="blur"/>
      <feComposite in="SourceGraphic"/>
    </filter>
  </defs>
  <g id="Group_44372" data-name="Group 44372" transform="translate(-11 -651)">
    <g transform="matrix(1, 0, 0, 1, 11, 651)" filter="url(#Rectangle_6091)">
      <rect id="Rectangle_6091-2" data-name="Rectangle 6091" width="45" height="45" rx="22.5" transform="translate(9 6)" fill="#2375d6"/>
    </g>
    <g id="ic-arrows-left" transform="translate(34 674)">
      <path id="Path" d="M13.445,9.64a1.035,1.035,0,0,1-1.4.153.949.949,0,0,1-.375-.644.929.929,0,0,1,.214-.708l1.936-2.3H1A.96.96,0,1,1,1,4.223H14.117L11.88,1.558A.929.929,0,0,1,11.666.85.949.949,0,0,1,12.04.206a1.035,1.035,0,0,1,1.4.153l3.291,3.921a1.111,1.111,0,0,1,0,1.438Z" transform="translate(0 0)" fill="#fff"/>
    </g>
  </g>
</svg>
