<svg xmlns="http://www.w3.org/2000/svg" width="26" height="26" viewBox="0 0 26 26">
  <g id="Group_46346" data-name="Group 46346" transform="translate(-42 -311)">
    <rect id="Rectangle_6637" data-name="Rectangle 6637" width="26" height="26" transform="translate(42 311)" fill="#2375d6" opacity="0"/>
    <path id="Path_134185" data-name="Path 134185" d="M-8.714-25.714a.346.346,0,0,0-.184.049l-5.893,3.143a.388.388,0,0,0-.209.344V-4.107a.4.4,0,0,0,.393.393.346.346,0,0,0,.184-.049L-8.53-6.906a.388.388,0,0,0,.209-.344V-25.321A.4.4,0,0,0-8.714-25.714Zm15.321,0a.346.346,0,0,0-.184.049L.53-22.522a.388.388,0,0,0-.209.344V-4.107a.4.4,0,0,0,.393.393A.346.346,0,0,0,.9-3.763L6.791-6.906A.388.388,0,0,0,7-7.25V-25.321A.4.4,0,0,0,6.607-25.714Zm-13.75,0a.4.4,0,0,0-.393.393V-7.25a.41.41,0,0,0,.221.356l6.286,3.143a.392.392,0,0,0,.172.037.4.4,0,0,0,.393-.393V-22.179a.41.41,0,0,0-.221-.356l-6.286-3.143A.392.392,0,0,0-7.143-25.714Z" transform="translate(58.982 338.697)" fill="#2375d6"/>
  </g>
</svg>
