<svg xmlns="http://www.w3.org/2000/svg" width="26" height="26" viewBox="0 0 26 26">
  <g id="Group_46347" data-name="Group 46347" transform="translate(-42 -311)">
    <rect id="Rectangle_6637" data-name="Rectangle 6637" width="26" height="26" transform="translate(42 311)" fill="#2375d6" opacity="0"/>
    <g id="email-icon" transform="translate(44 316)">
      <path id="Path_45440" data-name="Path 45440" d="M2.016,60.043q.4.289,2.4,1.715t3.07,2.2q.117.084.5.367t.633.457q.252.174.609.391a3.5,3.5,0,0,0,.674.325,1.813,1.813,0,0,0,.586.108h.024a1.814,1.814,0,0,0,.586-.108,3.5,3.5,0,0,0,.674-.325q.357-.217.609-.391t.633-.457q.381-.283.5-.367L19,60.043a5.646,5.646,0,0,0,1.429-1.48A3.237,3.237,0,0,0,21,56.746a1.869,1.869,0,0,0-.557-1.36,1.788,1.788,0,0,0-1.318-.566H1.875a1.655,1.655,0,0,0-1.389.626A2.473,2.473,0,0,0,0,57.01a2.854,2.854,0,0,0,.645,1.643A5.893,5.893,0,0,0,2.016,60.043Z" transform="translate(0 -54.82)" fill="#2375d6"/>
      <path id="Path_45441" data-name="Path 45441" d="M19.828,185.407q-3.843,2.476-5.836,3.849-.668.468-1.084.731a6.819,6.819,0,0,1-1.107.535,3.517,3.517,0,0,1-1.289.273h-.024a3.518,3.518,0,0,1-1.289-.273,6.822,6.822,0,0,1-1.107-.535q-.416-.262-1.084-.731-1.582-1.1-5.824-3.849A6.131,6.131,0,0,1,0,184.437v8.857a1.678,1.678,0,0,0,.551,1.261,1.852,1.852,0,0,0,1.324.524h17.25a1.852,1.852,0,0,0,1.324-.524A1.678,1.678,0,0,0,21,193.294v-8.857A6.379,6.379,0,0,1,19.828,185.407Z" transform="translate(0 -179.079)" fill="#2375d6"/>
    </g>
  </g>
</svg>
