<svg id="left-quote" xmlns="http://www.w3.org/2000/svg" width="35" height="25" viewBox="0 0 35 25">
  <g id="Group_3002" data-name="Group 3002">
    <path id="Path_1578" data-name="Path 1578" d="M10.505,19.188a9.479,9.479,0,0,0-2.4-.32,8.178,8.178,0,0,0-3.013.563c.757-2.529,2.577-6.893,6.2-7.384a.839.839,0,0,0,.7-.565L12.785,8.9a.727.727,0,0,0-.109-.642.874.874,0,0,0-.6-.347,6.587,6.587,0,0,0-.81-.05C6.912,7.858,2.6,12,.785,17.93c-1.067,3.479-1.38,8.71,1.249,12a8.114,8.114,0,0,0,6.38,2.924h.034a7.588,7.588,0,0,0,7.349-5.09,6.385,6.385,0,0,0-.7-5.291A7.581,7.581,0,0,0,10.505,19.188Z" transform="translate(0 -7.858)" fill="#f09a11"/>
    <path id="Path_1579" data-name="Path 1579" d="M63.722,22.477a7.58,7.58,0,0,0-4.591-3.289,9.478,9.478,0,0,0-2.4-.32,8.18,8.18,0,0,0-3.014.563c.757-2.529,2.577-6.893,6.2-7.384a.84.84,0,0,0,.7-.565L61.411,8.9a.727.727,0,0,0-.109-.642.872.872,0,0,0-.6-.347,6.581,6.581,0,0,0-.81-.05c-4.351,0-8.66,4.142-10.478,10.072-1.067,3.479-1.38,8.71,1.249,12a8.113,8.113,0,0,0,6.379,2.924h.034a7.588,7.588,0,0,0,7.349-5.09A6.389,6.389,0,0,0,63.722,22.477Z" transform="translate(-29.707 -7.858)" fill="#f09a11"/>
  </g>
</svg>
