<svg xmlns="http://www.w3.org/2000/svg" width="30" height="30" viewBox="0 0 30 30">
  <path id="Path_137253" data-name="Path 137253" d="M-3952-1735a14.9,14.9,0,0,1-10.607-4.393A14.9,14.9,0,0,1-3967-1750a14.9,14.9,0,0,1,4.394-10.607A14.9,14.9,0,0,1-3952-1765a14.9,14.9,0,0,1,10.606,4.394A14.9,14.9,0,0,1-3937-1750a14.9,14.9,0,0,1-4.393,10.606A14.9,14.9,0,0,1-3952-1735Zm-5.854-16.836a1.264,1.264,0,0,0-.946.438,1.621,1.621,0,0,0,0,2.112l4.417,4.928a1.278,1.278,0,0,0,.946.438,1.263,1.263,0,0,0,.947-.438l8.519-9.5a1.619,1.619,0,0,0,0-2.111,1.264,1.264,0,0,0-.947-.438,1.264,1.264,0,0,0-.946.437l-7.573,8.449-3.471-3.872A1.264,1.264,0,0,0-3957.854-1751.836Z" transform="translate(3967 1765)" fill="#2375d6"/>
</svg>
